<?xml version="1.0" encoding="UTF-8"?>
<svg xmlns="http://www.w3.org/2000/svg" width="64" height="64" viewBox="0 0 64 64" fill="none">
  <mask id="mask0_1_379" style="mask-type:alpha" maskUnits="userSpaceOnUse" x="0" y="0" width="64" height="64">
    <rect width="64" height="64" fill="#D9D9D9"></rect>
  </mask>
  <g mask="url(#mask0_1_379)">
    <path d="M1 55.282V51.2308C2.53507 51.1453 3.72056 50.6966 4.55647 49.8847C5.39233 49.0727 6.95216 48.6667 9.23593 48.6667C11.5197 48.6667 13.1453 49.1112 14.1128 50.0001C15.0803 50.889 16.4154 51.3334 18.1179 51.3334C19.8205 51.3334 21.1556 50.889 22.1231 50.0001C23.0906 49.1112 24.7163 48.6667 27 48.6667C29.2837 48.6667 30.9179 49.1112 31.9025 50.0001C32.8872 50.889 34.2308 51.3334 35.9333 51.3334C37.6359 51.3334 38.9624 50.889 39.9129 50.0001C40.8633 49.1112 42.4803 48.6667 44.7641 48.6667C47.0478 48.6667 48.6077 49.0727 49.4435 49.8847C50.2794 50.6966 51.4649 51.1453 52.9999 51.2308V55.282C50.8906 55.1794 49.3992 54.7179 48.5257 53.8974C47.6522 53.0769 46.3983 52.6666 44.7641 52.6666C43.1299 52.6666 41.8376 53.1111 40.8871 54C39.9367 54.8888 38.2855 55.3333 35.9333 55.3333C33.5812 55.3333 31.9128 54.8888 30.9282 54C29.9436 53.1111 28.6342 52.6666 27 52.6666C25.3658 52.6666 24.065 53.1111 23.0974 54C22.1299 54.8888 20.4701 55.3333 18.1179 55.3333C15.7658 55.3333 14.106 54.8888 13.1385 54C12.171 53.1111 10.8701 52.6666 9.23593 52.6666C7.60171 52.6666 6.34785 53.0769 5.47433 53.8974C4.60082 54.7179 3.10933 55.1794 1 55.282ZM1 43.282V39.2308C2.53507 39.1453 3.72056 38.6966 4.55647 37.8847C5.39233 37.0727 6.95216 36.6667 9.23593 36.6667C11.5197 36.6667 13.1521 37.1112 14.1333 38.0001C15.1145 38.889 16.4427 39.3334 18.1179 39.3334C19.8205 39.3334 21.1556 38.889 22.1231 38.0001C23.0906 37.1112 24.7163 36.6667 27 36.6667C29.2837 36.6667 30.9094 37.1112 31.8769 38.0001C32.8444 38.889 34.1795 39.3334 35.8821 39.3334C37.5846 39.3334 38.9197 38.889 39.8872 38.0001C40.8547 37.1112 42.4803 36.6667 44.7641 36.6667C47.0478 36.6667 48.6077 37.0727 49.4435 37.8847C50.2794 38.6966 51.4649 39.1453 52.9999 39.2308V43.282C50.8906 43.1794 49.3992 42.7179 48.5257 41.8974C47.6522 41.0769 46.3983 40.6666 44.7641 40.6666C43.1299 40.6666 41.8581 41.1111 40.9487 42C40.0393 42.8888 38.3675 43.3333 35.9333 43.3333C33.5539 43.3333 31.8787 42.8888 30.9077 42C29.9368 41.1111 28.6342 40.6666 27 40.6666C25.3111 40.6666 24.0171 41.1111 23.1179 42C22.2188 42.8888 20.5521 43.3333 18.1179 43.3333C15.6838 43.3333 14.0034 42.8888 13.0769 42C12.1504 41.1111 10.8701 40.6666 9.23593 40.6666C7.60171 40.6666 6.34785 41.0769 5.47433 41.8974C4.60082 42.7179 3.10933 43.1794 1 43.282ZM14.5796 30.0923L23.318 21.3538L19.9333 17.9691C18.4838 16.5196 16.9795 15.4829 15.4205 14.8589C13.8616 14.235 11.9163 13.8974 9.58467 13.8461V8.66675C12.6445 8.71804 15.1778 9.09753 17.1846 9.80521C19.1914 10.5129 21.1709 11.8428 23.1231 13.7949L39.4204 30.0923C38.87 30.4786 38.3247 30.782 37.7846 31.0026C37.2444 31.223 36.6188 31.3333 35.9077 31.3333C34.5128 31.3333 33.2932 30.8888 32.2487 29.9999C31.2043 29.1111 29.4547 28.6666 27 28.6666C24.5453 28.6666 22.7957 29.1111 21.7513 29.9999C20.7068 30.8888 19.4872 31.3333 18.0923 31.3333C17.3812 31.3333 16.7556 31.223 16.2154 31.0026C15.6753 30.782 15.13 30.4786 14.5796 30.0923ZM39.1743 8.92315C40.8871 8.92315 42.341 9.52741 43.5359 10.7359C44.7307 11.9445 45.3281 13.3915 45.3281 15.0769C45.3281 16.7898 44.7307 18.2436 43.5359 19.4385C42.341 20.6333 40.8871 21.2307 39.1743 21.2307C37.4615 21.2307 36.0077 20.6333 34.8128 19.4385C33.618 18.2436 33.0205 16.7898 33.0205 15.0769C33.0205 13.3915 33.618 11.9445 34.8128 10.7359C36.0077 9.52741 37.4615 8.92315 39.1743 8.92315Z" fill="#1C1B1F"></path>
  </g>
</svg>
