<?xml version="1.0" encoding="UTF-8"?>
<svg xmlns="http://www.w3.org/2000/svg" width="64" height="64" viewBox="0 0 64 64" fill="none">
  <mask id="mask0_1_391" style="mask-type:alpha" maskUnits="userSpaceOnUse" x="0" y="0" width="64" height="64">
    <rect width="64" height="64" fill="#D9D9D9"></rect>
  </mask>
  <g mask="url(#mask0_1_391)">
    <path d="M4.28213 35.3333L23.6666 7.46168V35.3333H4.28213ZM11.9179 31.3334H19.6667V20.205L11.9179 31.3334ZM29.2565 35.3333C29.7556 34.0547 30.2821 31.9324 30.8359 28.9666C31.3898 26.0008 31.6667 23.012 31.6667 20C31.6667 16.8513 31.3966 13.7376 30.8565 10.659C30.3163 7.58039 29.7915 5.23255 29.2821 3.61548C31.9078 4.62063 34.4582 6.1779 36.9334 8.28728C39.4086 10.3967 41.6171 12.8642 43.5589 15.6898C45.5008 18.5155 47.0854 21.6069 48.3128 24.9641C49.5401 28.3214 50.2051 31.7778 50.3077 35.3333H29.2565ZM34.4717 31.3334H45.877C45.1727 27.4325 43.8368 23.8248 41.8693 20.5102C39.9017 17.1956 37.6376 14.393 35.0769 12.1024C35.2512 13.3606 35.3931 14.6649 35.5025 16.0153C35.6119 17.3658 35.6666 18.694 35.6666 20C35.6666 22.0547 35.5538 24.0394 35.3281 25.9539C35.1025 27.8684 34.817 29.6616 34.4717 31.3334ZM19 50.8205C17.5026 50.8205 16.065 50.5026 14.6872 49.8667C13.3094 49.2308 12.0804 48.3351 11 47.1796C10.4804 47.7265 9.90942 48.2504 9.2872 48.7513C8.66498 49.2522 8.00344 49.6462 7.3026 49.9334C5.81544 48.812 4.54878 47.4556 3.5026 45.8641C2.45647 44.2727 1.69067 42.5402 1.2052 40.6667H52.7948C52.3093 42.5402 51.5435 44.2727 50.4974 45.8641C49.4512 47.4556 48.1846 48.812 46.6974 49.9334C45.9966 49.6462 45.335 49.2522 44.7128 48.7513C44.0906 48.2504 43.5196 47.7265 43 47.1796C41.8923 48.3351 40.6564 49.2308 39.2923 49.8667C37.9282 50.5026 36.4974 50.8205 35 50.8205C33.5026 50.8205 32.0607 50.5026 30.6744 49.8667C29.288 49.2308 28.0632 48.3265 27 47.1539C25.9368 48.3265 24.712 49.2308 23.3256 49.8667C21.9393 50.5026 20.4974 50.8205 19 50.8205ZM1 60.6667V56.6667H3C4.42222 56.6667 5.80684 56.4445 7.15387 56.0001C8.50084 55.5556 9.78289 54.9146 11 54.077C12.2342 54.9146 13.5205 55.5488 14.859 55.9795C16.1974 56.4103 17.5778 56.6257 19 56.6257C20.4222 56.6257 21.7957 56.4103 23.1205 55.9795C24.4453 55.5488 25.7384 54.9146 27 54.077C28.2342 54.9146 29.5205 55.5488 30.859 55.9795C32.1974 56.4103 33.5778 56.6257 35 56.6257C36.4222 56.6257 37.8 56.4103 39.1333 55.9795C40.4667 55.5488 41.7556 54.9146 43 54.077C44.2616 54.9146 45.5547 55.5556 46.8795 56.0001C48.2043 56.4445 49.5778 56.6667 51 56.6667H52.9999V60.6667H51C49.6735 60.6667 48.3436 60.4957 47.0103 60.1538C45.6769 59.812 44.3402 59.2906 43 58.5897C41.6598 59.2906 40.3231 59.812 38.9897 60.1538C37.6564 60.4957 36.3265 60.6667 35 60.6667C33.6735 60.6667 32.3436 60.4957 31.0103 60.1538C29.6769 59.812 28.3402 59.2906 27 58.5897C25.6598 59.2906 24.3231 59.812 22.9897 60.1538C21.6564 60.4957 20.3265 60.6667 19 60.6667C17.6735 60.6667 16.3436 60.4957 15.0103 60.1538C13.6769 59.812 12.3402 59.2906 11 58.5897C9.65982 59.2906 8.32307 59.812 6.98973 60.1538C5.6564 60.4957 4.32649 60.6667 3 60.6667H1Z" fill="#1C1B1F"></path>
  </g>
</svg>
