<?xml version="1.0" encoding="UTF-8"?>
<svg xmlns="http://www.w3.org/2000/svg" width="64" height="64" viewBox="0 0 64 64" fill="none">
  <mask id="mask0_1_37" style="mask-type:alpha" maskUnits="userSpaceOnUse" x="0" y="0" width="64" height="64">
    <rect width="64" height="64" fill="#D9D9D9"></rect>
  </mask>
  <g mask="url(#mask0_1_37)">
    <path d="M2 52.3177V48.4512C3.22053 48.3828 4.26927 48.1486 5.1462 47.7486C6.02313 47.3486 6.90689 46.9281 7.79747 46.4871C8.68805 46.046 9.67009 45.6495 10.7436 45.2973C11.8171 44.9452 13.1248 44.7691 14.6667 44.7691C16.253 44.7691 17.582 44.958 18.6538 45.3358C19.7256 45.7136 20.741 46.1358 21.7 46.6025C22.659 47.0691 23.6222 47.5025 24.5897 47.9025C25.5572 48.3025 26.694 48.5025 28 48.5025C29.306 48.5025 30.4428 48.3025 31.4103 47.9025C32.3778 47.5025 33.341 47.0691 34.3 46.6025C35.259 46.1358 36.2855 45.7136 37.3795 45.3358C38.4735 44.958 39.7915 44.7691 41.3333 44.7691C42.9196 44.7691 44.2384 44.9452 45.2897 45.2973C46.341 45.6495 47.312 46.046 48.2025 46.4871C49.0931 46.9281 49.9837 47.3486 50.8743 47.7486C51.7649 48.1486 52.8068 48.3828 53.9999 48.4512V52.3177C52.5333 52.2664 51.2846 52.0408 50.2538 51.6408C49.223 51.2408 48.2538 50.8203 47.3461 50.3793C46.4384 49.9382 45.5316 49.5374 44.6257 49.1767C43.7197 48.816 42.6222 48.6357 41.3333 48.6357C40.0889 48.6357 38.9897 48.8246 38.0359 49.2023C37.082 49.5801 36.1325 50.0023 35.1871 50.469C34.2418 50.9357 33.2111 51.369 32.0949 51.769C30.9786 52.169 29.6136 52.369 28 52.369C26.3864 52.369 25.0214 52.169 23.9051 51.769C22.7889 51.369 21.7582 50.9357 20.8129 50.469C19.8675 50.0023 18.9291 49.5801 17.9975 49.2023C17.0658 48.8246 15.9556 48.6357 14.6667 48.6357C13.4222 48.6357 12.3359 48.816 11.4077 49.1767C10.4795 49.5374 9.56156 49.9382 8.65387 50.3793C7.74618 50.8203 6.77696 51.2408 5.7462 51.6408C4.7154 52.0408 3.46662 52.2664 2 52.3177ZM2 41.2717V37.4051C3.22053 37.3367 4.26927 37.1025 5.1462 36.7025C6.02313 36.3025 6.90689 35.882 7.79747 35.441C8.68805 35 9.67009 34.6034 10.7436 34.2512C11.8171 33.8991 13.1248 33.723 14.6667 33.723C16.253 33.723 17.582 33.9119 18.6538 34.2897C19.7256 34.6674 20.741 35.0897 21.7 35.5563C22.659 36.023 23.6222 36.4563 24.5897 36.8563C25.5572 37.2563 26.694 37.4563 28 37.4563C29.306 37.4563 30.4428 37.2563 31.4103 36.8563C32.3778 36.4563 33.341 36.023 34.3 35.5563C35.259 35.0897 36.2855 34.6674 37.3795 34.2897C38.4735 33.9119 39.7915 33.723 41.3333 33.723C42.9196 33.723 44.2384 33.8991 45.2897 34.2512C46.341 34.6034 47.312 35 48.2025 35.441C49.0931 35.882 49.9837 36.3025 50.8743 36.7025C51.7649 37.1025 52.8068 37.3367 53.9999 37.4051V41.2717C52.5333 41.2204 51.2846 40.9947 50.2538 40.5947C49.223 40.1947 48.2538 39.7742 47.3461 39.3332C46.4384 38.8922 45.5316 38.4913 44.6257 38.1306C43.7197 37.7699 42.6222 37.5896 41.3333 37.5896C40.0616 37.5896 38.9487 37.7785 37.9949 38.1563C37.041 38.534 36.0914 38.9563 35.1461 39.4229C34.2008 39.8896 33.1769 40.3229 32.0743 40.7229C30.9718 41.1229 29.6136 41.3229 28 41.3229C26.3864 41.3229 25.0214 41.1229 23.9051 40.7229C22.7889 40.3229 21.7582 39.8896 20.8129 39.4229C19.8675 38.9563 18.9291 38.534 17.9975 38.1563C17.0658 37.7785 15.9556 37.5896 14.6667 37.5896C13.4222 37.5896 12.3359 37.7699 11.4077 38.1306C10.4795 38.4913 9.56156 38.8922 8.65387 39.3332C7.74618 39.7742 6.77696 40.1947 5.7462 40.5947C4.7154 40.9947 3.46662 41.2204 2 41.2717ZM2 30.2255V26.359C3.22053 26.2906 4.26927 26.0564 5.1462 25.6564C6.02313 25.2564 6.90689 24.8359 7.79747 24.3949C8.68805 23.9538 9.67009 23.5573 10.7436 23.2051C11.8171 22.853 13.1248 22.6769 14.6667 22.6769C16.253 22.6769 17.582 22.8658 18.6538 23.2436C19.7256 23.6214 20.741 24.0436 21.7 24.5103C22.659 24.9769 23.6222 25.4103 24.5897 25.8103C25.5572 26.2103 26.694 26.4103 28 26.4103C29.306 26.4103 30.4428 26.2103 31.4103 25.8103C32.3778 25.4103 33.341 24.9769 34.3 24.5103C35.259 24.0436 36.2855 23.6214 37.3795 23.2436C38.4735 22.8658 39.7915 22.6769 41.3333 22.6769C42.9196 22.6769 44.2384 22.853 45.2897 23.2051C46.341 23.5573 47.312 23.9538 48.2025 24.3949C49.0931 24.8359 49.9837 25.2564 50.8743 25.6564C51.7649 26.0564 52.8068 26.2906 53.9999 26.359V30.2255C52.5333 30.1742 51.2846 29.9486 50.2538 29.5486C49.223 29.1486 48.2538 28.7281 47.3461 28.2871C46.4384 27.846 45.5316 27.4452 44.6257 27.0845C43.7197 26.7239 42.6222 26.5435 41.3333 26.5435C40.0889 26.5435 38.9897 26.7324 38.0359 27.1102C37.082 27.488 36.1325 27.9102 35.1871 28.3769C34.2418 28.8435 33.2111 29.2769 32.0949 29.6769C30.9786 30.0769 29.6136 30.2769 28 30.2769C26.3864 30.2769 25.0214 30.0769 23.9051 29.6769C22.7889 29.2769 21.7582 28.8435 20.8129 28.3769C19.8675 27.9102 18.9291 27.488 17.9975 27.1102C17.0658 26.7324 15.9556 26.5435 14.6667 26.5435C13.4222 26.5435 12.3359 26.7239 11.4077 27.0845C10.4795 27.4452 9.56156 27.846 8.65387 28.2871C7.74618 28.7281 6.77696 29.1486 5.7462 29.5486C4.7154 29.9486 3.46662 30.1742 2 30.2255ZM2 19.1795V15.3129C3.22053 15.2445 4.26927 15.0103 5.1462 14.6103C6.02313 14.2103 6.90689 13.7898 7.79747 13.3488C8.68805 12.9078 9.67009 12.5112 10.7436 12.1591C11.8171 11.8069 13.1248 11.6309 14.6667 11.6309C16.253 11.6309 17.582 11.8197 18.6538 12.1975C19.7256 12.5753 20.741 12.9975 21.7 13.4642C22.659 13.9309 23.6222 14.3642 24.5897 14.7642C25.5572 15.1642 26.694 15.3642 28 15.3642C29.306 15.3642 30.4428 15.1642 31.4103 14.7642C32.3778 14.3642 33.341 13.9309 34.3 13.4642C35.259 12.9975 36.2855 12.5753 37.3795 12.1975C38.4735 11.8197 39.7915 11.6309 41.3333 11.6309C42.9196 11.6309 44.2384 11.8069 45.2897 12.1591C46.341 12.5112 47.312 12.9078 48.2025 13.3488C49.0931 13.7898 49.9837 14.2103 50.8743 14.6103C51.7649 15.0103 52.8068 15.2445 53.9999 15.3129V19.1795C52.5333 19.1282 51.2846 18.9025 50.2538 18.5025C49.223 18.1025 48.2538 17.682 47.3461 17.241C46.4384 16.8 45.5316 16.3991 44.6257 16.0385C43.7197 15.6777 42.6222 15.4974 41.3333 15.4974C40.0889 15.4974 38.9897 15.6863 38.0359 16.0641C37.082 16.4418 36.1325 16.8641 35.1871 17.3307C34.2418 17.7974 33.2111 18.2307 32.0949 18.6307C30.9786 19.0307 29.6136 19.2307 28 19.2307C26.3864 19.2307 25.0214 19.0307 23.9051 18.6307C22.7889 18.2307 21.7582 17.7974 20.8129 17.3307C19.8675 16.8641 18.9291 16.4418 17.9975 16.0641C17.0658 15.6863 15.9556 15.4974 14.6667 15.4974C13.4222 15.4974 12.3359 15.6777 11.4077 16.0385C10.4795 16.3991 9.56156 16.8 8.65387 17.241C7.74618 17.682 6.77696 18.1025 5.7462 18.5025C4.7154 18.9025 3.46662 19.1282 2 19.1795Z" fill="white"></path>
  </g>
</svg>
