<?xml version="1.0" encoding="UTF-8"?>
<svg xmlns="http://www.w3.org/2000/svg" width="64" height="64" viewBox="0 0 64 64" fill="none">
  <mask id="mask0_1_43" style="mask-type:alpha" maskUnits="userSpaceOnUse" x="0" y="0" width="64" height="64">
    <rect width="64" height="64" fill="#D9D9D9"></rect>
  </mask>
  <g mask="url(#mask0_1_43)">
    <path d="M4.12336 35.6462C3.22079 34.012 2.53019 32.3513 2.05156 30.6641C1.57285 28.9769 1.3335 27.2889 1.3335 25.6C1.3335 21.0325 2.90274 17.1795 6.04123 14.041C9.17963 10.9026 13.0326 9.33337 17.6002 9.33337C20.3489 9.33337 22.9771 9.97784 25.4848 11.2668C27.9925 12.5557 30.1643 14.3813 32.0002 16.7437C33.8361 14.3813 36.0079 12.5557 38.5156 11.2668C41.0233 9.97784 43.6515 9.33337 46.4002 9.33337C50.9677 9.33337 54.8207 10.9026 57.9591 14.041C61.0975 17.1795 62.6668 21.0325 62.6668 25.6C62.6668 27.2547 62.4274 28.9171 61.9488 30.5872C61.4701 32.2573 60.7795 33.935 59.877 35.6205C59.4936 35.0147 59.0405 34.4726 58.5176 33.9944C57.9948 33.5161 57.4087 33.1283 56.7591 32.8308C57.3813 31.5693 57.8548 30.3428 58.1796 29.1513C58.5044 27.9598 58.6668 26.7761 58.6668 25.6C58.6668 22.1504 57.4848 19.2436 55.1207 16.8794C52.7566 14.5154 49.8497 13.3333 46.4002 13.3333C43.2275 13.3333 40.5976 14.241 38.5104 16.0564C36.4233 17.8718 34.2532 20.1641 32.0002 22.9333C29.7471 20.1367 27.5771 17.8375 25.4899 16.0358C23.4027 14.2342 20.7728 13.3333 17.6002 13.3333C14.1506 13.3333 11.2438 14.5154 8.87963 16.8794C6.51554 19.2436 5.3335 22.1504 5.3335 25.6C5.3335 26.8102 5.4959 28.0154 5.8207 29.2154C6.1455 30.4154 6.61045 31.6291 7.21556 32.8565C6.56605 33.171 5.98487 33.5633 5.47203 34.0334C4.95923 34.5035 4.50967 35.0411 4.12336 35.6462ZM1.33363 57.3845V54.1333C1.33363 52.3316 2.26314 50.8675 4.12216 49.741C5.98123 48.6145 8.39381 48.0512 11.3599 48.0512C11.903 48.0512 12.4241 48.0666 12.9233 48.0974C13.4225 48.1282 13.8994 48.188 14.354 48.2769C13.8515 49.0632 13.4703 49.9 13.2105 50.7874C12.9507 51.6747 12.8208 52.6199 12.8208 53.623V57.3845H1.33363ZM17.3336 57.3845V53.7179C17.3336 51.1709 18.6889 49.1282 21.3994 47.5897C24.11 46.0513 27.6459 45.282 32.0072 45.282C36.4093 45.282 39.9531 46.0513 42.6386 47.5897C45.324 49.1282 46.6668 51.1709 46.6668 53.7179V57.3845H17.3336ZM51.1796 57.3845V53.623C51.1796 52.6199 51.0608 51.6747 50.8232 50.7874C50.5856 49.9 50.2292 49.0632 49.754 48.2769C50.2087 48.188 50.6803 48.1282 51.169 48.0974C51.6576 48.0666 52.1569 48.0512 52.6668 48.0512C55.6668 48.0512 58.0834 48.6145 59.9168 49.741C61.7501 50.8675 62.6668 52.3316 62.6668 54.1333V57.3845H51.1796ZM31.997 49.282C29.2265 49.282 26.8454 49.6495 24.854 50.3846C22.8625 51.1196 21.7574 52.0256 21.5386 53.1025V53.3846H42.5028V53.1025C42.2566 52.0256 41.1489 51.1196 39.1797 50.3846C37.2105 49.6495 34.8162 49.282 31.997 49.282ZM11.3592 45.4615C10.1041 45.4615 9.02961 45.0146 8.13583 44.1208C7.24205 43.2271 6.79516 42.1526 6.79516 40.8975C6.79516 39.6257 7.24205 38.5514 8.13583 37.6744C9.02961 36.7975 10.1041 36.359 11.3592 36.359C12.6309 36.359 13.7096 36.7975 14.595 37.6744C15.4805 38.5514 15.9232 39.6257 15.9232 40.8975C15.9232 42.1526 15.4805 43.2271 14.595 44.1208C13.7096 45.0146 12.6309 45.4615 11.3592 45.4615ZM52.6668 45.4615C51.4224 45.4615 50.3506 45.0146 49.4514 44.1208C48.5523 43.2271 48.1028 42.1526 48.1028 40.8975C48.1028 39.6257 48.5523 38.5514 49.4514 37.6744C50.3506 36.7975 51.424 36.359 52.6718 36.359C53.9573 36.359 55.0385 36.7975 55.9154 37.6744C56.7924 38.5514 57.2308 39.6257 57.2308 40.8975C57.2308 42.1526 56.7935 43.2271 55.9187 44.1208C55.0439 45.0146 53.9599 45.4615 52.6668 45.4615ZM32.0092 43.282C30.0887 43.282 28.4532 42.609 27.1028 41.2628C25.7524 39.9167 25.0772 38.2821 25.0772 36.359C25.0772 34.3975 25.7502 32.7533 27.0964 31.4264C28.4425 30.0996 30.0771 29.4361 32.0002 29.4361C33.9617 29.4361 35.6059 30.0987 36.9328 31.4238C38.2597 32.749 38.9232 34.3911 38.9232 36.35C38.9232 38.2706 38.2606 39.906 36.9354 41.2564C35.6102 42.6068 33.9682 43.282 32.0092 43.282ZM32.0002 33.436C31.1933 33.436 30.5044 33.7161 29.9335 34.2764C29.3626 34.8366 29.0771 35.5309 29.0771 36.359C29.0771 37.1659 29.3626 37.8548 29.9335 38.4258C30.5044 38.9967 31.1976 39.2822 32.013 39.2822C32.8284 39.2822 33.5173 38.9967 34.0797 38.4258C34.6421 37.8548 34.9232 37.1616 34.9232 36.3462C34.9232 35.5309 34.6431 34.842 34.0829 34.2796C33.5226 33.7172 32.8284 33.436 32.0002 33.436Z" fill="white"></path>
  </g>
</svg>
