<?xml version="1.0" encoding="UTF-8"?>
<svg xmlns="http://www.w3.org/2000/svg" width="18" height="18" viewBox="0 0 18 18" fill="none">
  <g clip-path="url(#clip0_1_611)">
    <path d="M5.78362 15.5483C12.0675 15.5483 15.5039 10.3423 15.5039 5.82806C15.5039 5.6802 15.5008 5.53296 15.4942 5.38652C16.1612 4.90425 16.7409 4.30244 17.1983 3.61742C16.5862 3.88961 15.9274 4.0726 15.2365 4.15539C15.9417 3.73229 16.4833 3.06326 16.7387 2.26572C16.0786 2.65706 15.3476 2.94137 14.5694 3.09493C13.946 2.43089 13.0583 2.01562 12.0755 2.01562C10.189 2.01562 8.65901 3.54553 8.65901 5.43143C8.65901 5.69965 8.68905 5.96034 8.7476 6.21044C5.90826 6.06757 3.39039 4.70823 1.70561 2.64107C1.41233 3.14584 1.24309 3.73239 1.24309 4.35824C1.24309 5.54334 1.84623 6.58986 2.76332 7.20186C2.20284 7.18465 1.67638 7.03078 1.21611 6.77468C1.2156 6.78904 1.2156 6.80299 1.2156 6.81826C1.2156 8.47281 2.39317 9.85424 3.95657 10.1673C3.66941 10.2454 3.36728 10.2874 3.05568 10.2874C2.83593 10.2874 2.62167 10.2658 2.41353 10.2258C2.84845 11.5832 4.10973 12.571 5.60501 12.5987C4.43569 13.5152 2.9627 14.0611 1.36183 14.0611C1.08648 14.0611 0.814282 14.0453 0.546875 14.0137C2.05886 14.9828 3.85423 15.5484 5.78372 15.5484" fill="white"></path>
  </g>
  <defs>
    <clipPath id="clip0_1_611">
      <rect width="17.7615" height="17.7615" fill="white"></rect>
    </clipPath>
  </defs>
</svg>
