<?xml version="1.0" encoding="UTF-8"?>
<svg xmlns="http://www.w3.org/2000/svg" width="18" height="18" viewBox="0 0 18 18" fill="none">
  <g clip-path="url(#clip0_1_609)">
    <path d="M16.2791 0.546875H1.46522C0.957976 0.54718 0.546773 0.958586 0.546875 1.46603V16.2799C0.54718 16.7872 0.958586 17.1984 1.46603 17.1983H9.4417V10.7589H7.27898V8.23838H9.4417V6.3835C9.4417 4.23246 10.7549 3.06166 12.6737 3.06166C13.5928 3.06166 14.3825 3.13016 14.6127 3.16075V5.40895H13.2896C12.2456 5.40895 12.0435 5.90501 12.0435 6.6331V8.23838H14.5396L14.2143 10.7589H12.0435V17.1983H16.2791C16.7866 17.1984 17.1982 16.7871 17.1983 16.2795C17.1983 16.2794 17.1983 16.2793 17.1983 16.2791V1.46522C17.1981 0.957976 16.7865 0.546773 16.2791 0.546875Z" fill="white"></path>
  </g>
  <defs>
    <clipPath id="clip0_1_609">
      <rect width="17.7615" height="17.7615" fill="white"></rect>
    </clipPath>
  </defs>
</svg>
