<svg width="64" height="64" viewBox="0 0 64 64" fill="none" xmlns="http://www.w3.org/2000/svg">
<mask id="mask0_1_385" style="mask-type:alpha" maskUnits="userSpaceOnUse" x="0" y="0" width="64" height="64">
<rect width="64" height="64" fill="#D9D9D9"/>
</mask>
<g mask="url(#mask0_1_385)">
<path d="M43.4204 26.5231L40.6102 23.6308L45.7794 18.5437L48.5896 21.3539L43.4204 26.5231ZM1 52.6666V48.6667H52.9999V52.6666H1ZM25 18.9744V11.7949H28.9999V18.9744H25ZM10.5795 26.441L5.49233 21.2718L8.30253 18.4616L13.4717 23.6308L10.5795 26.441ZM14.7999 37.3333H39.1999C38.1777 34.9333 36.5734 33 34.3871 31.5333C32.2008 30.0667 29.7384 29.3333 26.9999 29.3333C24.2615 29.3333 21.7991 30.0667 19.6127 31.5333C17.4264 33 15.8222 34.9333 14.7999 37.3333ZM9.82054 41.3333C10.1283 36.8 11.9266 33 15.2154 29.9334C18.5043 26.8667 22.4325 25.3334 26.9999 25.3334C31.5674 25.3334 35.4956 26.8667 38.7845 29.9334C42.0733 33 43.8716 36.8 44.1793 41.3333H9.82054Z" fill="#1C1B1F"/>
</g>
</svg>
