<svg width="64" height="64" viewBox="0 0 64 64" fill="none" xmlns="http://www.w3.org/2000/svg">
<mask id="mask0_1_382" style="mask-type:alpha" maskUnits="userSpaceOnUse" x="0" y="0" width="64" height="64">
<rect width="64" height="64" fill="#D9D9D9"/>
</mask>
<g mask="url(#mask0_1_382)">
<path d="M9.03164 60.6667L17.0521 19.7385C17.2675 18.6547 17.782 17.8291 18.5957 17.2615C19.4093 16.694 20.2589 16.4103 21.1444 16.4103C22.0469 16.4103 22.8845 16.6069 23.6572 17C24.4298 17.3932 25.0486 17.9829 25.5136 18.7693L28.1802 23.0359C29.0144 24.3761 30.1717 25.6197 31.652 26.7667C33.1324 27.9137 34.8743 28.7829 36.8778 29.3744V24.4103H40.0572V60.6667H36.8778V33.4717C34.6419 32.9829 32.523 32.1324 30.5213 30.9205C28.5196 29.7085 26.7324 28.1623 25.1597 26.2819L23.2264 35.9743L28.8776 41.359V60.6667H24.8778V44.7948L18.0982 39.0512L13.2726 60.6667H9.03164ZM9.60084 34.2051L4.6265 33.2666C4.08633 33.1504 3.65899 32.8692 3.3445 32.4231C3.02997 31.9769 2.93081 31.4701 3.04704 30.9026L5.04704 20.4359C5.29664 19.2018 5.96673 18.2163 7.0573 17.4795C8.14788 16.7428 9.31026 16.4992 10.5444 16.7487L12.9444 17.2462L9.60084 34.2051ZM25.5444 14.2564C24.1974 14.2564 23.0401 13.7727 22.0726 12.8051C21.1051 11.8376 20.6213 10.6803 20.6213 9.33335C20.6213 7.98637 21.1051 6.8291 22.0726 5.86154C23.0401 4.89403 24.1974 4.41028 25.5444 4.41028C26.8914 4.41028 28.0487 4.89403 29.0162 5.86154C29.9837 6.8291 30.4674 7.98637 30.4674 9.33335C30.4674 10.6803 29.9837 11.8376 29.0162 12.8051C28.0487 13.7727 26.8914 14.2564 25.5444 14.2564Z" fill="#1C1B1F"/>
</g>
</svg>
