<svg width="64" height="64" viewBox="0 0 64 64" fill="none" xmlns="http://www.w3.org/2000/svg">
<mask id="mask0_1_55" style="mask-type:alpha" maskUnits="userSpaceOnUse" x="0" y="0" width="64" height="64">
<rect width="64" height="64" fill="#D9D9D9"/>
</mask>
<g mask="url(#mask0_1_55)">
<path d="M23.3589 33.3332C22.0632 33.3332 20.9616 32.8794 20.0539 31.9717C19.1462 31.064 18.6923 29.9623 18.6923 28.6665V16.6667C18.6923 15.3709 19.1462 14.2692 20.0539 13.3615C20.9616 12.4538 22.0632 12 23.3589 12H33.9999C35.2956 12 36.3973 12.4538 37.305 13.3615C38.2127 14.2692 38.6665 15.3709 38.6665 16.6667V28.6665C38.6665 29.9623 38.2127 31.064 37.305 31.9717C36.3973 32.8794 35.2956 33.3332 33.9999 33.3332H23.3589ZM23.3589 29.3333H33.9999C34.1879 29.3333 34.346 29.2692 34.4743 29.1409C34.6025 29.0127 34.6666 28.8546 34.6666 28.6665V16.6667C34.6666 16.4786 34.6025 16.3205 34.4743 16.1923C34.346 16.064 34.1879 15.9999 33.9999 15.9999H23.3589C23.1709 15.9999 23.0128 16.064 22.8845 16.1923C22.7564 16.3205 22.6923 16.4786 22.6923 16.6667V28.6665C22.6923 28.8546 22.7564 29.0127 22.8845 29.1409C23.0128 29.2692 23.1709 29.3333 23.3589 29.3333ZM10.8461 46.6665C9.90253 46.6665 9.05809 46.3947 8.3128 45.8511C7.56751 45.3075 7.05129 44.5862 6.76413 43.6871L0 21.4102V12H3.99993V21.3333L10.6666 42.6666H39.3589V46.6665H10.8461ZM7.33333 54.6665V50.6666H39.3332V54.6665H7.33333ZM23.3589 15.9999H34.6666H22.6923H23.3589Z" fill="white"/>
</g>
</svg>
