<svg width="64" height="64" viewBox="0 0 64 64" fill="none" xmlns="http://www.w3.org/2000/svg">
<mask id="mask0_1_49" style="mask-type:alpha" maskUnits="userSpaceOnUse" x="0" y="0" width="64" height="64">
<rect width="64" height="64" fill="#D9D9D9"/>
</mask>
<g mask="url(#mask0_1_49)">
<path d="M17.6666 42.8205C15.9538 42.8205 14.5 42.223 13.3051 41.0282C12.1102 39.8333 11.5128 38.3795 11.5128 36.6667C11.5128 34.9539 12.1102 33.5 13.3051 32.3052C14.5 31.1103 15.9538 30.5129 17.6666 30.5129C19.3794 30.5129 20.8332 31.1103 22.0281 32.3052C23.223 33.5 23.8204 34.9539 23.8204 36.6667C23.8204 38.3795 23.223 39.8333 22.0281 41.0282C20.8332 42.223 19.3794 42.8205 17.6666 42.8205ZM7.82053 57.3333C6.47351 57.3333 5.33333 56.8667 4.4 55.9333C3.46667 55 3 53.8598 3 52.5128V16.8207C3 15.4736 3.46667 14.3335 4.4 13.4001C5.33333 12.4668 6.47351 12.0001 7.82053 12.0001H11.5129V6.35913H15.6153V12.0001H35.8204V6.35913H39.8203V12.0001H43.5127C44.8597 12.0001 45.9999 12.4668 46.9332 13.4001C47.8665 14.3335 48.3332 15.4736 48.3332 16.8207V52.5128C48.3332 53.8598 47.8665 55 46.9332 55.9333C45.9999 56.8667 44.8597 57.3333 43.5127 57.3333H7.82053ZM7.82053 53.3334H43.5127C43.7178 53.3334 43.9059 53.2479 44.0769 53.077C44.2478 52.906 44.3333 52.7179 44.3333 52.5128V27.4873H6.99993V52.5128C6.99993 52.7179 7.0854 52.906 7.25633 53.077C7.42731 53.2479 7.61538 53.3334 7.82053 53.3334ZM6.99993 23.4874H44.3333V16.8207C44.3333 16.6155 44.2478 16.4274 44.0769 16.2565C43.9059 16.0855 43.7178 16.0001 43.5127 16.0001H7.82053C7.61538 16.0001 7.42731 16.0855 7.25633 16.2565C7.0854 16.4274 6.99993 16.6155 6.99993 16.8207V23.4874Z" fill="white"/>
</g>
</svg>
