<svg width="24" height="24" viewBox="0 0 24 24" fill="none" xmlns="http://www.w3.org/2000/svg">
<mask id="mask0_1_327" style="mask-type:alpha" maskUnits="userSpaceOnUse" x="0" y="0" width="24" height="24">
<rect width="24" height="24" fill="#D8FF4F"/>
</mask>
<g mask="url(#mask0_1_327)">
<path d="M11.9994 11.9998C12.5494 11.9998 13.0202 11.8039 13.4119 11.4123C13.8036 11.0206 13.9994 10.5498 13.9994 9.99976C13.9994 9.44976 13.8036 8.97892 13.4119 8.58726C13.0202 8.19559 12.5494 7.99976 11.9994 7.99976C11.4494 7.99976 10.9786 8.19559 10.5869 8.58726C10.1952 8.97892 9.99939 9.44976 9.99939 9.99976C9.99939 10.5498 10.1952 11.0206 10.5869 11.4123C10.9786 11.8039 11.4494 11.9998 11.9994 11.9998ZM11.9994 21.9998C9.31606 19.7164 7.31189 17.5956 5.98689 15.6373C4.66189 13.6789 3.99939 11.8664 3.99939 10.1998C3.99939 7.69976 4.80356 5.70809 6.41189 4.22476C8.02022 2.74142 9.88272 1.99976 11.9994 1.99976C14.1161 1.99976 15.9786 2.74142 17.5869 4.22476C19.1952 5.70809 19.9994 7.69976 19.9994 10.1998C19.9994 11.8664 19.3369 13.6789 18.0119 15.6373C16.6869 17.5956 14.6827 19.7164 11.9994 21.9998Z" fill="black"/>
</g>
</svg>
