<svg width="24" height="24" viewBox="0 0 24 24" fill="none" xmlns="http://www.w3.org/2000/svg">
<mask id="mask0_1_324" style="mask-type:alpha" maskUnits="userSpaceOnUse" x="0" y="0" width="24" height="24">
<rect width="24" height="24" fill="#D8FF4F"/>
</mask>
<g mask="url(#mask0_1_324)">
<path d="M4.00061 20.0002C3.45061 20.0002 2.97978 19.8044 2.58811 19.4127C2.19644 19.0211 2.00061 18.5502 2.00061 18.0002V6.00024C2.00061 5.45024 2.19644 4.97941 2.58811 4.58774C2.97978 4.19608 3.45061 4.00024 4.00061 4.00024H20.0006C20.5506 4.00024 21.0214 4.19608 21.4131 4.58774C21.8048 4.97941 22.0006 5.45024 22.0006 6.00024V18.0002C22.0006 18.5502 21.8048 19.0211 21.4131 19.4127C21.0214 19.8044 20.5506 20.0002 20.0006 20.0002H4.00061ZM12.0006 12.8252C12.0839 12.8252 12.1714 12.8127 12.2631 12.7877C12.3548 12.7627 12.4423 12.7252 12.5256 12.6752L19.6006 8.25024C19.7339 8.16691 19.8339 8.06274 19.9006 7.93774C19.9673 7.81274 20.0006 7.67524 20.0006 7.52524C20.0006 7.19191 19.8589 6.94191 19.5756 6.77524C19.2923 6.60858 19.0006 6.61691 18.7006 6.80024L12.0006 11.0002L5.30061 6.80024C5.00061 6.61691 4.70894 6.61274 4.42561 6.78774C4.14228 6.96274 4.00061 7.20858 4.00061 7.52524C4.00061 7.69191 4.03394 7.83774 4.10061 7.96274C4.16728 8.08774 4.26728 8.18358 4.40061 8.25024L11.4756 12.6752C11.5589 12.7252 11.6464 12.7627 11.7381 12.7877C11.8298 12.8127 11.9173 12.8252 12.0006 12.8252Z" fill="black"/>
</g>
</svg>
