<svg width="26" height="26" viewBox="0 0 26 26" fill="none" xmlns="http://www.w3.org/2000/svg">
<path d="M26 13C25.9959 16.1772 24.8302 19.2433 22.7224 21.6208C20.6145 23.9982 17.7102 25.5228 14.5563 25.9075C14.486 25.9154 14.4149 25.9084 14.3476 25.8869C14.2803 25.8653 14.2183 25.8297 14.1657 25.7825C14.1132 25.7353 14.0712 25.6774 14.0427 25.6128C14.0141 25.5481 13.9996 25.4781 14 25.4075V16H17C17.1371 16.0003 17.2728 15.9724 17.3986 15.918C17.5245 15.8637 17.6378 15.784 17.7316 15.6841C17.8254 15.5841 17.8976 15.4659 17.9438 15.3368C17.9899 15.2077 18.0091 15.0705 18 14.9337C17.9779 14.6766 17.8593 14.4373 17.668 14.2641C17.4766 14.0909 17.2268 13.9965 16.9688 14H14V11C14 10.4695 14.2107 9.96083 14.5858 9.58576C14.9609 9.21068 15.4696 8.99997 16 8.99997H18C18.1371 9.00027 18.2728 8.97238 18.3986 8.91804C18.5245 8.86369 18.6378 8.78405 18.7316 8.68405C18.8254 8.58406 18.8976 8.46586 18.9438 8.33678C18.9899 8.2077 19.0091 8.07051 19 7.93372C18.9779 7.67614 18.8589 7.43653 18.667 7.26323C18.4752 7.08994 18.2248 6.99586 17.9663 6.99997H16C14.9391 6.99997 13.9217 7.4214 13.1716 8.17154C12.4214 8.92169 12 9.9391 12 11V14H9C8.86292 13.9997 8.72723 14.0276 8.60138 14.0819C8.47552 14.1362 8.36218 14.2159 8.2684 14.3159C8.17462 14.4159 8.1024 14.5341 8.05623 14.6632C8.01006 14.7922 7.99092 14.9294 8 15.0662C8.02212 15.3238 8.14111 15.5634 8.33296 15.7367C8.52482 15.91 8.77525 16.0041 9.03375 16H12V25.41C12.0004 25.4805 11.9859 25.5504 11.9574 25.6149C11.9289 25.6795 11.8871 25.7373 11.8347 25.7845C11.7823 25.8317 11.7204 25.8673 11.6533 25.8889C11.5861 25.9106 11.5151 25.9177 11.445 25.91C8.2067 25.5156 5.23446 23.9198 3.1166 21.4386C0.998734 18.9573 -0.110391 15.7713 0.00875425 12.5112C0.258754 5.76122 5.72625 0.273718 12.4813 0.0112183C14.2301 -0.0565241 15.9747 0.229157 17.6106 0.851174C19.2465 1.47319 20.7401 2.41877 22.0022 3.63134C23.2643 4.84391 24.2688 6.29857 24.9557 7.90831C25.6426 9.51805 25.9978 11.2498 26 13Z" fill="black"/>
</svg>
