<svg width="64" height="64" viewBox="0 0 64 64" fill="none" xmlns="http://www.w3.org/2000/svg">
<mask id="mask0_1_373" style="mask-type:alpha" maskUnits="userSpaceOnUse" x="0" y="0" width="64" height="64">
<rect width="64" height="64" fill="#D9D9D9"/>
</mask>
<g mask="url(#mask0_1_373)">
<path d="M14.3077 31.6923V26.9744H19.0255V31.6923H14.3077ZM30.3077 31.6923V26.9744H35.0255V31.6923H30.3077ZM2 57.3333V37.8975H4.66667V26.6667C4.66667 23.9043 5.18804 21.3086 6.2308 18.8795C7.27351 16.4505 8.70096 14.329 10.5131 12.5151C12.3253 10.7012 14.4498 9.27297 16.8869 8.23048C19.3239 7.18799 21.9171 6.66675 24.6666 6.66675C27.429 6.66675 30.0247 7.18813 32.4537 8.23088C34.8828 9.27359 37.0042 10.7018 38.8178 12.5155C40.6315 14.3291 42.0597 16.4505 43.1024 18.8795C44.1452 21.3086 44.6665 23.9043 44.6665 26.6667V37.8975H47.3332V57.3333H2ZM5.99993 53.3334H12V41.8974H5.99993V53.3334ZM15.9999 53.3334H22.6667V41.8974H15.9999V53.3334ZM8.6666 37.8975H22.6667V10.8154C18.8615 11.2325 15.5769 12.9188 12.8128 15.8743C10.0487 18.8299 8.6666 22.4273 8.6666 26.6667V37.8975ZM26.6665 37.8975H40.6666V26.6667C40.6666 22.4273 39.2845 18.8299 36.5204 15.8743C33.7563 12.9188 30.4717 11.2325 26.6665 10.8154V37.8975ZM26.6665 53.3334H33.3333V41.8974H26.6665V53.3334ZM37.3332 53.3334H43.3333V41.8974H37.3332V53.3334Z" fill="#1C1B1F"/>
</g>
</svg>
