<svg width="64" height="64" viewBox="0 0 64 64" fill="none" xmlns="http://www.w3.org/2000/svg">
<mask id="mask0_1_376" style="mask-type:alpha" maskUnits="userSpaceOnUse" x="0" y="0" width="64" height="64">
<rect width="64" height="64" fill="#D9D9D9"/>
</mask>
<g mask="url(#mask0_1_376)">
<path d="M11.0001 54.9743C8.34882 54.9743 6.07918 54.0303 4.19113 52.1423C2.30313 50.2542 1.35913 47.9846 1.35913 45.3334C1.35913 42.6821 2.30313 40.4125 4.19113 38.5244C6.07918 36.6364 8.34882 35.6924 11.0001 35.6924C13.6513 35.6924 15.921 36.6364 17.809 38.5244C19.697 40.4125 20.641 42.6821 20.641 45.3334C20.641 47.9846 19.697 50.2542 17.809 52.1423C15.921 54.0303 13.6513 54.9743 11.0001 54.9743ZM43.0001 54.9743C40.3488 54.9743 38.0792 54.0303 36.1911 52.1423C34.3031 50.2542 33.3591 47.9846 33.3591 45.3334C33.3591 42.6821 34.3031 40.4125 36.1911 38.5244C38.0792 36.6364 40.3488 35.6924 43.0001 35.6924C45.6513 35.6924 47.921 36.6364 49.809 38.5244C51.697 40.4125 52.641 42.6821 52.641 45.3334C52.641 47.9846 51.697 50.2542 49.809 52.1423C47.921 54.0303 45.6513 54.9743 43.0001 54.9743ZM11.001 50.9744C12.5525 50.9744 13.8804 50.422 14.9847 49.3171C16.089 48.2122 16.6411 46.884 16.6411 45.3324C16.6411 43.7809 16.0887 42.453 14.9838 41.3488C13.8789 40.2444 12.5507 39.6923 10.9991 39.6923C9.44762 39.6923 8.11973 40.2447 7.01546 41.3496C5.91115 42.4545 5.359 43.7827 5.359 45.3343C5.359 46.8858 5.91144 48.2137 7.01633 49.318C8.12122 50.4223 9.44944 50.9744 11.001 50.9744ZM43.001 50.9744C44.5525 50.9744 45.8804 50.422 46.9847 49.3171C48.089 48.2122 48.6411 46.884 48.6411 45.3324C48.6411 43.7809 48.0887 42.453 46.9838 41.3488C45.8789 40.2444 44.5507 39.6923 42.9991 39.6923C41.4476 39.6923 40.1197 40.2447 39.0155 41.3496C37.9112 42.4545 37.359 43.7827 37.359 45.3343C37.359 46.8858 37.9114 48.2137 39.0163 49.318C40.1212 50.4223 41.4494 50.9744 43.001 50.9744ZM27.0001 28.3076C24.3488 28.3076 22.0792 27.3636 20.1911 25.4756C18.3031 23.5876 17.3591 21.3179 17.3591 18.6667C17.3591 16.0154 18.3031 13.7458 20.1911 11.8578C22.0792 9.96976 24.3488 9.02576 27.0001 9.02576C29.6513 9.02576 31.921 9.96976 33.809 11.8578C35.697 13.7458 36.641 16.0154 36.641 18.6667C36.641 21.3179 35.697 23.5876 33.809 25.4756C31.921 27.3636 29.6513 28.3076 27.0001 28.3076ZM27.001 24.3078C28.5525 24.3078 29.8804 23.7553 30.9847 22.6504C32.089 21.5455 32.6411 20.2173 32.6411 18.6658C32.6411 17.1142 32.0887 15.7864 30.9838 14.6821C29.8789 13.5778 28.5507 13.0256 26.9991 13.0256C25.4476 13.0256 24.1197 13.5781 23.0155 14.683C21.9112 15.7878 21.359 17.1161 21.359 18.6676C21.359 20.2191 21.9114 21.547 23.0163 22.6513C24.1212 23.7556 25.4494 24.3078 27.001 24.3078Z" fill="#1C1B1F"/>
</g>
</svg>
