<svg width="64" height="64" viewBox="0 0 64 64" fill="none" xmlns="http://www.w3.org/2000/svg">
<mask id="mask0_1_388" style="mask-type:alpha" maskUnits="userSpaceOnUse" x="0" y="0" width="64" height="64">
<rect width="64" height="64" fill="#D9D9D9"/>
</mask>
<g mask="url(#mask0_1_388)">
<path d="M45.7433 22.923L42.9227 16.6667L36.6664 13.8462L42.9227 11.0257L45.7433 4.76941L48.5637 11.0257L54.8201 13.8462L48.5637 16.6667L45.7433 22.923ZM45.7433 59.2306L42.9227 52.9743L36.6664 50.1538L42.9227 47.3333L45.7433 41.077L48.5637 47.3333L54.8201 50.1538L48.5637 52.9743L45.7433 59.2306ZM20.1023 50.1023L14.4613 37.6409L2 32L14.4613 26.3591L20.1023 13.8977L25.7433 26.3591L38.2046 32L25.7433 37.6409L20.1023 50.1023ZM20.1023 40.4L22.7689 34.6667L28.5023 32L22.7689 29.3333L20.1023 23.6L17.4356 29.3333L11.7023 32L17.4356 34.6667L20.1023 40.4Z" fill="#1C1B1F"/>
</g>
</svg>
