<svg width="64" height="64" viewBox="0 0 64 64" fill="none" xmlns="http://www.w3.org/2000/svg">
<mask id="mask0_1_394" style="mask-type:alpha" maskUnits="userSpaceOnUse" x="0" y="0" width="64" height="64">
<rect width="64" height="64" fill="#D9D9D9"/>
</mask>
<g mask="url(#mask0_1_394)">
<path d="M22.4361 35.2821V18.8718C17.6497 18.8718 13.7181 20.4958 10.6411 23.7436C7.56426 26.9915 6.02581 30.8377 6.02581 35.2821H22.4361ZM32.2821 45.1282V18.8718H26.436V39.282H6.02581V44.3076C6.02581 44.547 6.10275 44.7436 6.25661 44.8974C6.41044 45.0513 6.60701 45.1282 6.84635 45.1282H32.2821ZM36.2821 36.6462L51.9743 35.0462V30.6666H36.2821V36.6462ZM31.3334 56.3076H6.33348V52.3076H31.3334V56.3076ZM36.2821 49.1281H6.84635C5.52075 49.1281 4.38592 48.6561 3.44188 47.7121C2.49788 46.7681 2.02588 45.6333 2.02588 44.3076V35.2821C2.02588 29.7027 3.95152 24.9061 7.80281 20.8924C11.6541 16.8788 16.5318 14.872 22.4361 14.872H36.2821V26.6667H49.4615L51.9743 21.3334H55.9743V38.641L36.2821 40.6461V49.1281ZM47.3334 11.6924H6.33348V7.6925H47.3334V11.6924Z" fill="#1C1B1F"/>
</g>
</svg>
