<svg width="18" height="18" viewBox="0 0 18 18" fill="none" xmlns="http://www.w3.org/2000/svg">
<g clip-path="url(#clip0_1_605)">
<path d="M17.7441 5.28639C17.7025 4.331 17.5499 3.67418 17.3313 3.10504C17.1058 2.50091 16.7588 1.96003 16.3042 1.5104C15.8601 1.05377 15.3223 0.698943 14.7324 0.474194C14.167 0.252876 13.5215 0.0983789 12.5778 0.0562557C11.627 0.0105651 11.3252 0 8.91372 0C6.50227 0 6.20043 0.0105651 5.25317 0.0526883C4.30944 0.0948114 3.66063 0.249446 3.09856 0.470627C2.50166 0.698943 1.96738 1.0502 1.52323 1.5104C1.07216 1.96003 0.721805 2.50448 0.499662 3.10161C0.281042 3.67418 0.128429 4.32744 0.0868196 5.28282C0.0416862 6.24534 0.03125 6.55091 0.03125 8.99213C0.03125 11.4334 0.0416862 11.7389 0.0832957 12.6979C0.124905 13.6533 0.277654 14.3101 0.496273 14.8792C0.721805 15.4834 1.07216 16.0242 1.52323 16.4739C1.96738 16.9305 2.50518 17.2853 3.09504 17.5101C3.66063 17.7314 4.30591 17.8859 5.24978 17.928C6.19691 17.9703 6.49888 17.9807 8.91033 17.9807C11.3218 17.9807 11.6236 17.9703 12.5709 17.928C13.5146 17.8859 14.1634 17.7314 14.7255 17.5101C15.9192 17.0429 16.8629 16.0875 17.3244 14.8792C17.5429 14.3066 17.6956 13.6533 17.7372 12.6979C17.7788 11.7389 17.7893 11.4334 17.7893 8.99213C17.7893 6.55091 17.7858 6.24534 17.7441 5.28639ZM16.1447 12.6276C16.1065 13.5058 15.9608 13.98 15.8393 14.2961C15.5409 15.0794 14.9268 15.7011 14.153 16.0032C13.8407 16.1262 13.3689 16.2737 12.5049 16.3122C11.5681 16.3545 11.2871 16.3649 8.91724 16.3649C6.5474 16.3649 6.26291 16.3545 5.32948 16.3122C4.46205 16.2737 3.99364 16.1262 3.68136 16.0032C3.29631 15.8592 2.94581 15.6309 2.66132 15.3323C2.3664 15.0407 2.14086 14.6895 1.99855 14.2996C1.87711 13.9835 1.73141 13.5058 1.69332 12.6312C1.65158 11.6828 1.64128 11.3982 1.64128 8.99913C1.64128 6.60003 1.65158 6.31203 1.69332 5.36721C1.73141 4.48907 1.87711 4.01487 1.99855 3.69874C2.14086 3.3088 2.3664 2.95411 2.66485 2.66597C2.95272 2.3674 3.29969 2.13909 3.68489 1.99516C3.99716 1.87222 4.4691 1.72472 5.333 1.68602C6.26982 1.6439 6.55093 1.63334 8.92063 1.63334C11.294 1.63334 11.575 1.6439 12.5084 1.68602C13.3758 1.72472 13.8442 1.87222 14.1565 1.99516C14.5416 2.13909 14.8921 2.3674 15.1766 2.66597C15.4715 2.95754 15.697 3.3088 15.8393 3.69874C15.9608 4.01487 16.1065 4.4925 16.1447 5.36721C16.1863 6.31559 16.1967 6.60003 16.1967 8.99913C16.1967 11.3982 16.1863 11.6792 16.1447 12.6276Z" fill="white"/>
<path d="M8.91424 4.37305C6.39531 4.37305 4.35156 6.44188 4.35156 8.99205C4.35156 11.5422 6.39531 13.6111 8.91424 13.6111C11.4333 13.6111 13.4769 11.5422 13.4769 8.99205C13.4769 6.44188 11.4333 4.37305 8.91424 4.37305ZM8.91424 11.9883C7.28008 11.9883 5.95454 10.6465 5.95454 8.99205C5.95454 7.33758 7.28008 5.99582 8.91424 5.99582C10.5485 5.99582 11.8739 7.33758 11.8739 8.99205C11.8739 10.6465 10.5485 11.9883 8.91424 11.9883Z" fill="white"/>
<path d="M14.7242 4.19161C14.7242 4.78709 14.2473 5.26993 13.6589 5.26993C13.0707 5.26993 12.5938 4.78709 12.5938 4.19161C12.5938 3.59598 13.0707 3.11328 13.6589 3.11328C14.2473 3.11328 14.7242 3.59598 14.7242 4.19161Z" fill="white"/>
</g>
<defs>
<clipPath id="clip0_1_605">
<rect width="17.7615" height="17.9807" fill="white"/>
</clipPath>
</defs>
</svg>
