<svg width="18" height="18" viewBox="0 0 18 18" fill="none" xmlns="http://www.w3.org/2000/svg">
<g clip-path="url(#clip0_1_613)">
<path d="M2.5662 0.910156C1.34519 0.910156 0.546875 1.71935 0.546875 2.78293C0.546875 3.82302 1.32141 4.6553 2.51935 4.6553H2.54252C3.78741 4.6553 4.56215 3.82302 4.56215 2.78293C4.53888 1.71935 3.78741 0.910156 2.5662 0.910156Z" fill="white"/>
<path d="M0.757812 6.13477H4.32733V16.9732H0.757812V6.13477Z" fill="white"/>
<path d="M13.0873 5.88086C11.1616 5.88086 9.8704 7.70707 9.8704 7.70707V6.13524H6.30078V16.9737H9.8702V10.9211C9.8702 10.5971 9.89347 10.2735 9.98779 10.0418C10.2458 9.3948 10.8331 8.72449 11.8192 8.72449C13.1108 8.72449 13.6274 9.71842 13.6274 11.1755V16.9737H17.1966V10.7591C17.1966 7.43002 15.4356 5.88086 13.0873 5.88086Z" fill="white"/>
</g>
<defs>
<clipPath id="clip0_1_613">
<rect width="17.7615" height="17.9259" fill="white"/>
</clipPath>
</defs>
</svg>
